<svg width="60" height="50" viewBox="0 0 60 50" fill="none" xmlns="http://www.w3.org/2000/svg">
<g clip-path="url(#clip0_2_242)">
<path d="M15.521 0.275199C14.2825 2.2018 12.5394 5.43575 12.677 5.57336C12.7687 5.66511 19.1449 5.77979 26.8284 5.80272C39.5807 5.84859 40.7963 5.87153 40.8651 6.21557C40.9109 6.44492 40.4981 7.29355 39.9935 8.14217C39.466 9.01373 38.9385 9.93116 38.8238 10.1835C38.6862 10.4587 38.4568 10.9174 38.2733 11.2156C38.1128 11.5367 38.021 11.8807 38.0669 11.9724C38.2504 12.2706 51.232 12.1789 51.232 11.8807C51.232 11.7431 50.9339 11.1238 50.544 10.5046C50.1541 9.90823 49.8559 9.3119 49.8559 9.19722C49.8559 9.10547 49.5577 8.57795 49.1678 8.07336C48.8008 7.54584 48.4797 7.04125 48.4797 6.97245C48.4797 6.8807 48.044 6.07795 47.4935 5.18346C46.943 4.28896 46.4385 3.39446 46.3467 3.21098C46.255 3.02749 45.9797 2.54584 45.7275 2.17887C45.4752 1.78896 45.1541 1.2385 45.0394 0.917401C44.9018 0.619236 44.6495 0.275199 44.5119 0.183456C44.3513 0.0917124 37.8146 -3.05176e-05 29.9706 -3.05176e-05C18.8008 -3.05176e-05 15.6586 0.068777 15.521 0.275199ZM8.43387 12.6835C8.25039 12.7981 7.99809 13.0963 7.86048 13.3715C7.7458 13.6468 7.56231 14.0367 7.4247 14.2202C6.7825 15.2064 5.13112 18.0734 5.13112 18.211C5.13112 18.3027 4.94763 18.6468 4.69534 18.9908C4.46598 19.3348 3.68616 20.6422 2.95222 21.9036C2.21827 23.1651 1.5302 24.2202 1.41552 24.266C1.09442 24.4036 1.2091 25.0917 1.73662 25.9174C2.69993 27.4312 2.81461 27.6376 3.04396 28.1422C3.45681 29.0596 4.44305 30.5046 4.64947 30.5046C4.76415 30.5046 5.10818 30 5.42928 29.4036C6.55314 27.2706 9.25956 22.5688 9.97057 21.5137C10.2229 21.1697 10.4063 20.8257 10.4063 20.7568C10.4063 20.688 11.1862 19.3348 12.1265 17.7523C13.0669 16.1697 13.8467 14.8165 13.8467 14.7247C13.8467 14.6559 14.1219 14.1972 14.443 13.7156C14.7871 13.2339 14.9935 12.7523 14.9018 12.6605C14.6495 12.4312 8.84672 12.4541 8.43387 12.6835ZM23.755 12.6146C22.7229 12.7293 22.7229 12.7293 21.6219 14.9082C21.3467 15.4816 20.7733 16.4449 20.3834 17.0871C19.9706 17.7064 19.3054 18.8532 18.8926 19.6101C18.4797 20.3669 18.021 21.1468 17.8834 21.3302C17.7458 21.5137 17.4247 22.0413 17.1724 22.477C16.3697 23.922 15.7045 25.0917 15.2229 25.9174C14.3972 27.3165 13.8008 28.3486 11.1403 32.9816L8.52562 37.5L8.93846 38.3027C9.16782 38.7385 9.78708 39.8165 10.3146 40.711C10.8192 41.5825 11.3238 42.5458 11.4155 42.8211C11.5073 43.1192 11.6678 43.3486 11.7596 43.3486C11.8513 43.3486 12.1495 43.7844 12.4476 44.3119C12.7229 44.8624 13.1586 45.5963 13.4109 45.9862C13.6403 46.3532 13.9843 46.9724 14.1678 47.3624C14.3513 47.7293 14.81 48.4862 15.1999 49.0367L15.9109 50H44.3742L44.7641 49.3119C44.9706 48.9449 45.2229 48.6238 45.3375 48.6238C45.4293 48.6238 45.4981 48.5091 45.4981 48.3715C45.4981 48.2339 45.8421 47.5229 46.2779 46.8119C46.6908 46.1009 47.333 45 47.677 44.3807C48.021 43.7385 49.0073 42.0413 49.8559 40.5963C55.0853 31.6743 54.9935 31.8578 54.6495 31.6284C54.466 31.5137 54.0302 31.4679 53.6632 31.5367C53.2963 31.6055 51.943 31.6513 50.6586 31.6513H48.2963L46.8742 34.1055C46.0944 35.4816 44.5807 38.0504 43.5256 39.8394C42.4706 41.6284 41.599 43.188 41.599 43.3257C41.599 44.0137 40.544 44.0825 29.833 44.0596C23.8926 44.0367 19.0302 44.0137 19.0073 43.9679C18.4109 43.211 15.4522 37.8669 15.4522 37.5917C15.4522 37.3624 15.9109 36.3991 16.4843 35.4816C17.0577 34.5413 17.5164 33.6926 17.5164 33.6238C17.5164 33.5321 17.7687 33.1192 18.0898 32.7064C18.4109 32.2935 18.6632 31.8807 18.6632 31.789C18.6632 31.6972 19.1908 30.7568 19.81 29.6789C20.4522 28.6009 20.9568 27.7064 20.9568 27.6605C20.9568 27.5688 23.5715 23.0963 24.5119 21.6055C24.8559 21.0779 25.3834 20.1605 25.6816 19.5642C26.0027 18.9679 26.7825 17.6376 27.4018 16.5825C28.021 15.5275 28.5256 14.6101 28.5256 14.5183C28.5256 14.4495 28.8008 14.0367 29.1219 13.6009C29.443 13.1651 29.6495 12.7523 29.5807 12.6605C29.3972 12.477 25.1541 12.4541 23.755 12.6146Z" fill="black"/>
<path d="M33.5945 19.4723C33.2734 19.8393 32.7458 20.6421 32.4247 21.2384C31.6679 22.7292 30.9798 23.9677 25.2917 33.7613C24.7871 34.587 24.3972 35.3668 24.3972 35.4586C24.3972 35.5503 24.1678 35.8714 23.9156 36.1466C23.2963 36.8118 23.4798 37.4999 24.2367 37.2934C24.5119 37.2246 27.5853 37.1558 31.0715 37.1558H37.3789L37.8835 36.1696C38.5257 34.931 39.3284 33.532 39.8559 32.7521C40.5669 31.6742 40.3605 31.5824 36.989 31.5595C33.9844 31.5365 33.9156 31.5365 33.8468 31.032C33.8009 30.7109 34.2367 29.7246 34.9706 28.509C35.6358 27.4081 36.3697 26.1237 36.5991 25.6421L37.0119 24.7705H47.7917C54.5578 24.7705 58.5715 24.6787 58.5715 24.5411C58.5715 24.2888 55.911 19.7705 55.4064 19.1971C55.0853 18.8301 54.3284 18.8072 44.6266 18.8072L34.1908 18.8301L33.5945 19.4723Z" fill="black"/>
</g>
<defs>
<clipPath id="clip0_2_242">
<rect width="59.6659" height="50" fill="white"/>
</clipPath>
</defs>
</svg>
